<?xml version="1.0" standalone="no"?>
<!DOCTYPE svg PUBLIC "-//W3C//DTD SVG 20010904//EN"
 "http://www.w3.org/TR/2001/REC-SVG-20010904/DTD/svg10.dtd">
<svg version="1.0" xmlns="http://www.w3.org/2000/svg"
 width="238.000000pt" height="60.000000pt" viewBox="0 0 238.000000 60.000000"
 preserveAspectRatio="xMidYMid meet">

<g transform="translate(0.000000,60.000000) scale(0.100000,-0.100000)"
fill="#000000" stroke="none">
<path d="M545 1281 c-75 -31 -92 -150 -28 -201 32 -25 108 -27 141 -4 18 12
22 25 22 65 l0 50 -47 -3 c-35 -2 -48 -7 -48 -18 0 -9 11 -16 28 -18 35 -4 37
-38 2 -54 -34 -15 -80 5 -96 44 -10 24 -9 35 4 63 19 40 56 54 98 38 22 -8 31
-8 39 2 9 11 5 17 -19 29 -33 17 -65 19 -96 7z"/>
<path d="M757 1177 c-26 -57 -47 -107 -47 -111 0 -16 39 -4 45 14 5 17 15 20
70 20 55 0 65 -3 70 -20 6 -19 45 -29 45 -12 0 5 -20 53 -45 108 -36 82 -48
100 -68 102 -22 3 -29 -8 -70 -101z m94 3 l18 -40 -39 0 c-45 0 -47 5 -23 55
19 40 20 39 44 -15z"/>
<path d="M980 1170 c0 -103 1 -110 20 -110 16 0 20 7 20 35 0 54 24 55 74 6
38 -37 76 -54 76 -33 0 5 -13 21 -29 36 l-29 28 25 23 c34 29 36 80 4 107 -18
13 -40 18 -92 18 l-69 0 0 -110z m139 56 c9 -11 10 -20 1 -35 -8 -16 -20 -21
-55 -21 -45 0 -45 0 -45 35 0 35 0 35 44 35 26 0 48 -6 55 -14z"/>
<path d="M1490 1170 l0 -110 85 0 c78 0 85 2 85 20 0 18 -7 20 -65 20 -63 0
-65 1 -65 25 0 24 3 25 60 25 53 0 60 2 60 20 0 18 -7 20 -60 20 -57 0 -60 1
-60 25 0 24 2 25 65 25 58 0 65 2 65 20 0 18 -7 20 -85 20 l-85 0 0 -110z"/>
<path d="M1710 1170 c0 -103 1 -110 20 -110 18 0 20 7 20 70 0 39 3 70 8 70 4
-1 31 -32 60 -71 30 -38 59 -68 65 -66 8 2 13 41 15 110 3 102 2 107 -18 107
-17 0 -20 -7 -21 -42 -1 -24 0 -53 1 -65 3 -36 -12 -27 -64 42 -29 40 -56 65
-67 65 -17 0 -19 -9 -19 -110z"/>
<path d="M1268 1253 l-48 -4 0 -65 c0 -59 3 -68 29 -95 41 -40 107 -41 151 -1
27 23 31 36 37 95 l6 67 -51 0 c-28 0 -56 1 -64 3 -7 2 -34 2 -60 0z m132 -78
c0 -45 -29 -75 -72 -75 -18 0 -38 4 -44 8 -18 11 -34 48 -34 76 0 26 1 26 75
26 l75 0 0 -35z"/>
</g>
</svg>
